<?xml version="1.0" encoding="utf-8"?>
<!-- Generator: Adobe Illustrator 28.2.0, SVG Export Plug-In . SVG Version: 6.00 Build 0)  -->
<svg version="1.1" id="Layer_1" xmlns="http://www.w3.org/2000/svg" xmlns:xlink="http://www.w3.org/1999/xlink" x="0px" y="0px"
	 viewBox="0 0 592 249" style="enable-background:new 0 0 592 249;" xml:space="preserve">
<style type="text/css">
	.st0{fill:#73295D;}
</style>
<g>
	<path class="st0" d="M350.8,184.1c3.2-5.4,4.8-11.9,4.8-19.4c0-4.1-0.6-8.1-1.8-12.1c-1.3-4.2-3.6-7.9-7-11.2
		c-3.3-3.2-7.9-5.9-13.5-7.8c-5.5-2-12.7-2.9-21.2-2.9h-39v115.9h20V201h18.7c1.3,0,2.7,0,4.3-0.1c0.8,0,1.6-0.1,2.4-0.1l20.7,45.8
		h22.5l-23.8-50.9C343.6,192.7,348,188.9,350.8,184.1z M334.2,172.9c-0.6,2.1-1.6,3.8-3,5.2c-1.5,1.5-3.6,2.6-6.3,3.4
		c-2.9,0.9-6.7,1.3-11.3,1.3h-20.4l0,0v-34.2h18.5c5,0,9,0.4,12.2,1.2c2.9,0.8,5.2,1.8,6.9,3.2c1.6,1.4,2.7,2.9,3.3,4.8
		c0.7,2,1.1,4.5,1.1,7.2C335.1,168,334.8,170.6,334.2,172.9z"/>
	<polygon class="st0" points="361.6,246.6 361.6,246.6 361.6,246.6 	"/>
	<rect x="370.4" y="130.7" class="st0" width="20.2" height="115.9"/>
	<polygon class="st0" points="451.1,216.6 419.8,130.7 397.3,130.7 441.8,246.6 460.3,246.6 504.7,130.7 483,130.7 	"/>
	<polygon class="st0" points="592,228.1 531.5,228.1 531.5,196.2 585.4,196.2 585.4,177.6 531.5,177.6 531.5,149.1 588.5,149.1 
		588.5,130.7 511.4,130.7 511.4,246.6 588.6,246.6 588.6,246.6 	"/>
	<polygon class="st0" points="61.5,201.2 94.5,201.2 77.8,157.5 	"/>
	<path class="st0" d="M0,249h23l45.9-117.8h19L133.6,249h9.1V131.2h40.2c8.8,0,16.2,1,21.9,3c5.8,2,10.4,4.8,13.9,8
		c3.5,3.3,5.9,7.2,7.2,11.5c1.2,4.1,1.9,8.3,1.9,12.5c0,7.7-1.7,14.4-4.9,19.9c-3,5-7.6,9-13.9,12l23.8,50.8H255V0H0V249z"/>
	<polygon class="st0" points="55.1,219 43.8,249 112.2,249 100.9,219 	"/>
	<path class="st0" d="M196.3,184.3c2.9-0.9,5.2-2.2,6.9-3.8c1.6-1.6,2.7-3.5,3.4-5.7c0.7-2.5,1-5.3,1-8.3c0-2.9-0.4-5.5-1.2-7.7
		c-0.7-2.1-1.9-3.8-3.7-5.3c-1.8-1.5-4.3-2.7-7.5-3.5c-3.3-0.8-7.7-1.3-12.9-1.3h-20v37v0h22C189.2,185.7,193.2,185.2,196.3,184.3z"
		/>
	<path class="st0" d="M187,203.4c-1.6,0-3.1,0.1-4.4,0.1h-20.2V249h48.2l-20.7-45.8C189,203.2,188,203.3,187,203.4z"/>
</g>
</svg>
